<svg width="61" height="61" viewBox="0 0 61 61" fill="none" xmlns="http://www.w3.org/2000/svg">
<g clip-path="url(#clip0_109_538)">
<path d="M56.2143 20.5555C56.2143 18.7475 55.9743 17.1515 55.4944 15.7676C55.0145 14.3837 54.4007 13.2843 53.6529 12.4696C52.9051 11.6549 51.9955 10.9908 50.9241 10.4774C49.8527 9.96401 48.8036 9.61803 47.7768 9.43945C46.75 9.26088 45.6562 9.1716 44.4955 9.1716C43.3348 9.1716 42.0848 9.4562 40.7455 10.0254C39.4062 10.5946 38.173 11.3089 37.0458 12.1683C35.9185 13.0276 34.9531 13.8312 34.1496 14.579C33.346 15.3267 32.6763 16.0131 32.1406 16.6381C31.7388 17.1292 31.192 17.3747 30.5 17.3747C29.808 17.3747 29.2612 17.1292 28.8594 16.6381C28.3237 16.0131 27.654 15.3267 26.8504 14.579C26.0469 13.8312 25.0815 13.0276 23.9542 12.1683C22.827 11.3089 21.5938 10.5946 20.2545 10.0254C18.9152 9.4562 17.6652 9.1716 16.5045 9.1716C15.3437 9.1716 14.25 9.26088 13.2232 9.43945C12.1964 9.61803 11.1473 9.96401 10.0759 10.4774C9.00446 10.9908 8.09487 11.6549 7.3471 12.4696C6.59933 13.2843 5.98549 14.3837 5.50558 15.7676C5.02567 17.1515 4.78571 18.7475 4.78571 20.5555C4.78571 24.3055 6.87277 28.2676 11.0469 32.4417L30.5 51.1917L49.9196 32.4752C54.1161 28.2787 56.2143 24.3055 56.2143 20.5555ZM60.5 20.5555C60.5 25.4886 57.9442 30.5109 52.8326 35.6225L31.9732 55.7118C31.5714 56.1136 31.0804 56.3145 30.5 56.3145C29.9196 56.3145 29.4286 56.1136 29.0268 55.7118L8.13393 35.5555C7.91071 35.377 7.60379 35.0868 7.21317 34.685C6.82254 34.2832 6.20312 33.5522 5.35491 32.4919C4.5067 31.4316 3.74777 30.3435 3.07812 29.2274C2.40848 28.1113 1.81138 26.7609 1.28683 25.1761C0.762277 23.5912 0.5 22.0511 0.5 20.5555C0.5 15.6448 1.91741 11.8055 4.75223 9.03767C7.58705 6.26981 11.5045 4.88588 16.5045 4.88588C17.8884 4.88588 19.3002 5.12584 20.74 5.60575C22.1797 6.08566 23.519 6.73298 24.7578 7.54771C25.9967 8.36245 27.0625 9.12695 27.9554 9.84124C28.8482 10.5555 29.6964 11.3145 30.5 12.118C31.3036 11.3145 32.1518 10.5555 33.0446 9.84124C33.9375 9.12695 35.0033 8.36245 36.2422 7.54771C37.481 6.73298 38.8203 6.08566 40.26 5.60575C41.6998 5.12584 43.1116 4.88588 44.4955 4.88588C49.4955 4.88588 53.4129 6.26981 56.2478 9.03767C59.0826 11.8055 60.5 15.6448 60.5 20.5555Z" fill="white"/>
</g>
<defs>
<clipPath id="clip0_109_538">
<rect width="60" height="60" fill="white" transform="matrix(1 0 0 -1 0.5 60.6001)"/>
</clipPath>
</defs>
</svg>
