<svg width="61" height="61" viewBox="0 0 61 61" fill="none" xmlns="http://www.w3.org/2000/svg">
<path d="M59.5625 0.968403C60.2991 1.50412 60.6004 2.2184 60.4665 3.11126L51.8951 54.5398C51.7835 55.1872 51.4263 55.6894 50.8237 56.0465C50.5112 56.2251 50.1652 56.3144 49.7857 56.3144C49.5402 56.3144 49.2723 56.2586 48.9821 56.147L31.337 48.9483L21.3594 59.897C20.9576 60.3657 20.433 60.6001 19.7857 60.6001C19.4732 60.6001 19.2165 60.5555 19.0156 60.4662C18.5915 60.3099 18.2567 60.0476 18.0112 59.6793C17.7656 59.311 17.6429 58.9037 17.6429 58.4572V43.3233L1.83928 36.8613C1.01339 36.5488 0.56696 35.9349 0.499995 35.0197C0.433031 34.1492 0.790174 33.4907 1.57142 33.0443L57.2857 0.90144C58.067 0.43269 58.8259 0.455009 59.5625 0.968403ZM48.1116 51.1581L55.5112 6.86126L7.49776 34.551L18.7478 39.138L47.6428 17.743L31.6384 44.4282L48.1116 51.1581Z" fill="white"/>
</svg>
