<svg width="61" height="53" viewBox="0 0 61 53" fill="none" xmlns="http://www.w3.org/2000/svg">
<path d="M31.2701 25.2274C31.2701 25.2274 31.3203 25.1772 31.4208 25.0767C31.5212 24.9763 31.5714 24.7698 31.5714 24.4573C31.5714 24.1448 31.471 23.8881 31.2701 23.6872C31.0692 23.4863 30.8125 23.3859 30.5 23.3859C29.0268 23.3859 27.7656 23.9104 26.7165 24.9595C25.6674 26.0086 25.1429 27.2698 25.1429 28.743C25.1429 29.0555 25.2433 29.3122 25.4442 29.5131C25.6451 29.714 25.9018 29.8145 26.2143 29.8145C26.5268 29.8145 26.7835 29.714 26.9844 29.5131C27.1853 29.3122 27.2857 29.0555 27.2857 28.743C27.2857 27.8502 27.5982 27.0912 28.2232 26.4662C28.8482 25.8412 29.6071 25.5287 30.5 25.5287C30.8125 25.5287 31.0692 25.4283 31.2701 25.2274ZM36.5603 22.7497C36.5603 22.7497 36.9788 23.1682 37.8158 24.0053C38.6529 24.8424 39.0714 26.4439 39.0714 28.81C39.0714 31.1761 38.2344 33.1961 36.5603 34.8703C34.8862 36.5444 32.8661 37.3814 30.5 37.3814C28.1339 37.3814 26.1138 36.5444 24.4397 34.8703C22.7656 33.1961 21.9286 31.1761 21.9286 28.81C21.9286 26.4439 22.7656 24.4238 24.4397 22.7497C26.1138 21.0756 28.1339 20.2386 30.5 20.2386C32.8661 20.2386 34.8862 21.0756 36.5603 22.7497ZM4.78571 48.0287H56.2143V43.743H4.78571V48.0287ZM39.5904 37.9004C39.5904 37.9004 40.2182 37.2726 41.4738 36.017C42.7294 34.7614 43.3571 32.3591 43.3571 28.81C43.3571 25.2609 42.1016 22.2307 39.5904 19.7196C37.0792 17.2084 34.0491 15.9528 30.5 15.9528C26.9509 15.9528 23.9208 17.2084 21.4096 19.7196C18.8984 22.2307 17.6429 25.2609 17.6429 28.81C17.6429 32.3591 18.8984 35.3892 21.4096 37.9004C23.9208 40.4116 26.9509 41.6671 30.5 41.6671C34.0491 41.6671 37.0792 40.4116 39.5904 37.9004ZM9.07143 7.31445H21.9286V3.02874H9.07143V7.31445ZM4.78571 13.743H56.2143V9.79213V5.1716H28.4911L26.3482 9.45731H4.78571V13.743ZM60.5 5.1716V48.0287C60.5 49.2118 60.0815 50.2218 59.2444 51.0589C58.4074 51.8959 57.3973 52.3145 56.2143 52.3145H4.78571C3.60268 52.3145 2.59263 51.8959 1.75558 51.0589C0.918527 50.2218 0.5 49.2118 0.5 48.0287V5.1716C0.5 3.98856 0.918527 2.97852 1.75558 2.14146C2.59263 1.30441 3.60268 0.885883 4.78571 0.885883H56.2143C57.3973 0.885883 58.4074 1.30441 59.2444 2.14146C60.0815 2.97852 60.5 3.98856 60.5 5.1716Z" fill="white"/>
</svg>
